<?xml version="1.0" encoding="utf-8"?>
<svg version="1.1" xmlns:xlink="http://www.w3.org/1999/xlink" width="23px" height="21px" xmlns="http://www.w3.org/2000/svg">
  <g transform="matrix(1 0 0 1 -57 -13 )">
    <path d="M 2.084375 0  L 20.915625 0  C 21.1911458333333 0  21.4546875 0.0416391275611372  21.70625 0.124917382683412  C 22.1015625 0.245208195637803  22.416015625 0.434897554527428  22.649609375 0.69398545935228  C 22.883203125 0.95307336417713  23 1.23992068737607  23 1.55452742894911  L 23 19.4454725710509  C 23 19.7600793126239  22.883203125 20.0469266358229  22.649609375 20.3060145406477  C 22.416015625 20.5651024454726  22.1015625 20.7547918043622  21.70625 20.8750826173166  C 21.4786458333333 20.9491077329808  21.2151041666667 20.986120290813  20.915625 20.986120290813  C 20.340625 20.986120290813  19.8434895833333 20.8380700594845  19.42421875 20.5419695968275  L 11.5 14.6569729015202  L 3.57578125 20.5419695968275  C 3.14453125 20.8473231989425  2.64739583333333 21  2.084375 21  C 1.80885416666667 21  1.5453125 20.9583608724389  1.29375 20.8750826173166  C 0.8984375 20.7547918043622  0.583984375 20.5651024454726  0.350390625 20.3060145406477  C 0.116796875 20.0469266358229  0 19.7600793126239  0 19.4454725710509  L 0 1.55452742894911  C 0 1.23992068737607  0.116796875 0.95307336417713  0.350390625 0.69398545935228  C 0.583984375 0.434897554527428  0.8984375 0.245208195637803  1.29375 0.124917382683412  C 1.5453125 0.0416391275611372  1.80885416666667 0  2.084375 0  Z " fill-rule="nonzero" fill="#1bc42c" stroke="none" transform="matrix(1 0 0 1 57 13 )" />
  </g>
</svg>