<?xml version="1.0" encoding="utf-8"?>
<svg version="1.1" xmlns:xlink="http://www.w3.org/1999/xlink" width="151px" height="106px" xmlns="http://www.w3.org/2000/svg">
  <g transform="matrix(1 0 0 1 -459 -254 )">
    <path d="M 27.4545454545455 77  L 41.1818181818182 77  L 41.1818181818182 86  L 27.4545454545455 86  L 27.4545454545455 77  Z M 27.4545454545455 20  L 41.1818181818182 20  L 41.1818181818182 29  L 27.4545454545455 29  L 27.4545454545455 20  Z M 109.818181818182 20  L 123.545454545455 20  L 123.545454545455 29  L 109.818181818182 29  L 109.818181818182 20  Z M 14 67  L 14 96  L 55 96  L 55 67  L 14 67  Z M 14 10  L 14 39  L 55 39  L 55 10  L 14 10  Z M 96 10  L 96 39  L 137 39  L 137 10  L 96 10  Z M 0 57  L 69 57  L 69 106  L 0 106  L 0 57  Z M 109 96  L 123 96  L 123 106  L 109 106  L 109 96  Z M 137 96  L 151 96  L 151 106  L 137 106  L 137 96  Z M 137 57  L 151 57  L 151 86  L 109.818181818182 86  L 109.818181818182 77  L 96 77  L 96 106  L 82 106  L 82 57  L 123 57  L 123 67  L 137 67  L 137 57  Z M 0 0  L 69 0  L 69 49  L 0 49  L 0 0  Z M 82 0  L 151 0  L 151 49  L 82 49  L 82 0  Z " fill-rule="nonzero" fill="#374441" stroke="none" transform="matrix(1 0 0 1 459 254 )" />
  </g>
</svg>